<svg width="601" height="67" xmlns="http://www.w3.org/2000/svg" xmlns:xlink="http://www.w3.org/1999/xlink" overflow="hidden"><defs><clipPath id="clip0"><rect x="537" y="310" width="601" height="67"/></clipPath></defs><g clip-path="url(#clip0)" transform="translate(-537 -310)"><path d="M784.5 360.5C784.5 351.664 791.664 344.5 800.5 344.5 809.337 344.5 816.5 351.664 816.5 360.5 816.5 369.337 809.337 376.5 800.5 376.5 791.664 376.5 784.5 369.337 784.5 360.5Z" stroke="#2F528F" stroke-width="1.33333" stroke-miterlimit="8" fill="#4472C4" fill-rule="evenodd"/><path d="M891.5 360.5C891.5 351.664 898.664 344.5 907.5 344.5 916.337 344.5 923.5 351.664 923.5 360.5 923.5 369.337 916.337 376.5 907.5 376.5 898.664 376.5 891.5 369.337 891.5 360.5Z" stroke="#2F528F" stroke-width="1.33333" stroke-miterlimit="8" fill="#4472C4" fill-rule="evenodd"/><path d="M998.5 360.5C998.5 351.664 1005.66 344.5 1014.5 344.5 1023.34 344.5 1030.5 351.664 1030.5 360.5 1030.5 369.337 1023.34 376.5 1014.5 376.5 1005.66 376.5 998.5 369.337 998.5 360.5Z" stroke="#2F528F" stroke-width="1.33333" stroke-miterlimit="8" fill="#4472C4" fill-rule="evenodd"/><path d="M1105.5 360.5C1105.5 351.664 1112.66 344.5 1121.5 344.5 1130.34 344.5 1137.5 351.664 1137.5 360.5 1137.5 369.337 1130.34 376.5 1121.5 376.5 1112.66 376.5 1105.5 369.337 1105.5 360.5Z" stroke="#2F528F" stroke-width="1.33333" stroke-miterlimit="8" fill="#4472C4" fill-rule="evenodd"/><text font-family="Cambria Math,Cambria Math_MSFontService,sans-serif" font-weight="400" font-size="24" transform="translate(754.645 334)">sdom</text><path d="M836.14 315.966C838.422 316.568 840.174 317.867 841.396 319.863 842.619 321.859 843.23 324.267 843.23 327.087 843.23 329.916 842.621 332.324 841.402 334.312 840.183 336.3 838.429 337.595 836.14 338.197L835.859 337.295C837.664 336.693 839.006 335.505 839.884 333.732 840.763 331.959 841.203 329.705 841.203 326.97 841.203 324.33 840.765 322.136 839.89 320.39 839.015 318.644 837.66 317.47 835.824 316.869ZM820.178 315.966 820.494 316.869C818.666 317.47 817.313 318.644 816.434 320.39 815.555 322.136 815.115 324.33 815.115 326.97 815.115 329.705 815.555 331.959 816.434 333.732 817.313 335.505 818.654 336.693 820.459 337.295L820.178 338.197C817.889 337.595 816.135 336.3 814.916 334.312 813.697 332.324 813.088 329.916 813.088 327.087 813.088 324.267 813.699 321.859 814.922 319.863 816.145 317.867 817.897 316.568 820.178 315.966Z" fill-rule="evenodd"/><text font-family="Cambria Math,Cambria Math_MSFontService,sans-serif" font-weight="400" font-size="24" transform="translate(820.939 334)">𝑢<tspan font-size="24" x="42.5649" y="0">sdom</tspan></text><path d="M948.925 315.966C951.207 316.568 952.958 317.867 954.181 319.863 955.404 321.859 956.015 324.267 956.015 327.087 956.015 329.916 955.406 332.324 954.187 334.312 952.968 336.3 951.214 337.595 948.925 338.197L948.644 337.294C950.449 336.693 951.791 335.505 952.669 333.732 953.548 331.958 953.988 329.705 953.988 326.97 953.988 324.33 953.55 322.136 952.675 320.39 951.8 318.644 950.445 317.47 948.609 316.869ZM929.036 315.966 929.353 316.869C927.524 317.47 926.171 318.644 925.292 320.39 924.413 322.136 923.974 324.33 923.974 326.97 923.974 329.705 924.413 331.958 925.292 333.732 926.171 335.505 927.513 336.693 929.317 337.294L929.036 338.197C926.747 337.595 924.993 336.3 923.774 334.312 922.556 332.324 921.946 329.916 921.946 327.087 921.946 324.267 922.558 321.859 923.78 319.863 925.003 317.867 926.755 316.568 929.036 315.966Z" fill-rule="evenodd"/><text font-family="Cambria Math,Cambria Math_MSFontService,sans-serif" font-weight="400" font-size="24" transform="translate(929.797 334)">𝑤<tspan font-size="24" x="182" y="0">𝑤</tspan><tspan font-size="24" x="74.9749" y="0">𝑢</tspan></text><path d="M816.5 359.167 885.358 359.167 885.358 361.833 816.5 361.833ZM884.025 356.5 892.025 360.5 884.025 364.5Z" fill="#4472C4"/><path d="M923.5 359.167 992.358 359.167 992.358 361.833 923.5 361.833ZM991.025 356.5 999.025 360.5 991.025 364.5Z" fill="#4472C4"/><path d="M1030.5 359.167 1099.36 359.167 1099.36 361.833 1030.5 361.833ZM1098.02 356.5 1106.02 360.5 1098.02 364.5Z" fill="#4472C4"/><path d="M570.5 360.5C570.5 351.664 577.664 344.5 586.5 344.5 595.337 344.5 602.5 351.664 602.5 360.5 602.5 369.337 595.337 376.5 586.5 376.5 577.664 376.5 570.5 369.337 570.5 360.5Z" stroke="#2F528F" stroke-width="1.33333" stroke-miterlimit="8" fill="#4472C4" fill-rule="evenodd"/><path d="M677.5 360.5C677.5 351.664 684.664 344.5 693.5 344.5 702.337 344.5 709.5 351.664 709.5 360.5 709.5 369.337 702.337 376.5 693.5 376.5 684.664 376.5 677.5 369.337 677.5 360.5Z" stroke="#2F528F" stroke-width="1.33333" stroke-miterlimit="8" fill="#4472C4" fill-rule="evenodd"/><text font-family="Cambria Math,Cambria Math_MSFontService,sans-serif" font-weight="400" font-size="24" transform="translate(542.483 334)">i<tspan font-size="24" x="6.66669" y="0">dom</tspan></text><path d="M624.238 315.966C626.519 316.568 628.271 317.867 629.494 319.863 630.716 321.859 631.328 324.267 631.328 327.087 631.328 329.916 630.718 332.324 629.5 334.312 628.281 336.3 626.527 337.595 624.238 338.197L623.957 337.295C625.761 336.693 627.103 335.505 627.982 333.732 628.861 331.959 629.3 329.705 629.3 326.97 629.3 324.33 628.863 322.136 627.988 320.39 627.113 318.644 625.757 317.47 623.921 316.869ZM604.349 315.966 604.665 316.869C602.837 317.47 601.483 318.644 600.604 320.39 599.726 322.136 599.286 324.33 599.286 326.97 599.286 329.705 599.726 331.959 600.604 333.732 601.483 335.505 602.825 336.693 604.63 337.295L604.349 338.197C602.06 337.595 600.306 336.3 599.087 334.312 597.868 332.324 597.259 329.916 597.259 327.087 597.259 324.267 597.87 321.859 599.093 319.863 600.315 317.867 602.067 316.568 604.349 315.966Z" fill-rule="evenodd"/><text font-family="Cambria Math,Cambria Math_MSFontService,sans-serif" font-weight="400" font-size="24" transform="translate(605.109 334)">𝑤<tspan font-size="24" x="42.4982" y="0">i</tspan><tspan font-size="24" x="49.1649" y="0">dom</tspan></text><path d="M725.436 315.966C727.717 316.568 729.469 317.867 730.692 319.863 731.915 321.859 732.526 324.267 732.526 327.087 732.526 329.916 731.917 332.324 730.698 334.312 729.479 336.3 727.725 337.595 725.436 338.197L725.155 337.294C726.959 336.693 728.301 335.505 729.18 333.732 730.059 331.958 730.499 329.705 730.499 326.97 730.499 324.33 730.061 322.136 729.186 320.39 728.311 318.644 726.956 317.47 725.12 316.869ZM709.474 315.966 709.79 316.869C707.962 317.47 706.608 318.644 705.729 320.39 704.85 322.136 704.411 324.33 704.411 326.97 704.411 329.705 704.85 331.958 705.729 333.732 706.608 335.505 707.95 336.693 709.755 337.294L709.474 338.197C707.184 337.595 705.431 336.3 704.212 334.312 702.993 332.324 702.384 329.916 702.384 327.087 702.384 324.267 702.995 321.859 704.218 319.863 705.44 317.867 707.192 316.568 709.474 315.966Z" fill-rule="evenodd"/><text font-family="Cambria Math,Cambria Math_MSFontService,sans-serif" font-weight="400" font-size="24" transform="translate(710.234 334)">𝑢</text><path d="M602.5 359.167 610.5 359.167 610.5 361.833 602.5 361.833ZM613.167 359.167 621.167 359.167 621.167 361.833 613.167 361.833ZM623.833 359.167 631.833 359.167 631.833 361.833 623.833 361.833ZM634.5 359.167 642.5 359.167 642.5 361.833 634.5 361.833ZM645.167 359.167 653.167 359.167 653.167 361.833 645.167 361.833ZM655.833 359.167 663.833 359.167 663.833 361.833 655.833 361.833ZM666.5 359.167 671.358 359.167 671.358 361.833 666.5 361.833ZM670.025 356.5 678.025 360.5 670.025 364.5Z" fill="#4472C4"/><path d="M709.5 359.167 778.404 359.167 778.404 361.833 709.5 361.833ZM777.071 356.5 785.071 360.5 777.071 364.5Z" fill="#4472C4"/></g></svg>